<svg width="16" height="16" viewBox="0 0 16 16" fill="none" xmlns="http://www.w3.org/2000/svg">
<path fill-rule="evenodd" clip-rule="evenodd" d="M14.0001 5.07715H6.07715C5.52486 5.07715 5.07715 5.52486 5.07715 6.07715V14.0001C5.07715 14.5524 5.52486 15.0001 6.07715 15.0001H14.0001C14.5524 15.0001 15.0001 14.5524 15.0001 14.0001V6.07715C15.0001 5.52486 14.5524 5.07715 14.0001 5.07715ZM6.07715 4.07715C4.97258 4.07715 4.07715 4.97258 4.07715 6.07715V14.0001C4.07715 15.1046 4.97258 16.0001 6.07715 16.0001H14.0001C15.1046 16.0001 16.0001 15.1046 16.0001 14.0001V6.07715C16.0001 4.97258 15.1046 4.07715 14.0001 4.07715H6.07715ZM0 2.5C0 1.11929 1.11929 0 2.5 0H10.4229C11.8036 0 12.9229 1.11929 12.9229 2.5V3.18266H11.9229V2.5C11.9229 1.67157 11.2514 1 10.4229 1H2.5C1.67157 1 1 1.67157 1 2.5V10.4229C1 11.2514 1.67157 11.9229 2.5 11.9229H3.18266V12.9229H2.5C1.11929 12.9229 0 11.8036 0 10.4229V2.5Z" fill="black"/>
</svg>
