<svg width="48" height="48" viewBox="0 0 48 48" fill="none" xmlns="http://www.w3.org/2000/svg">
<path d="M37 17.176C36.122 17.5417 35.1659 17.7977 34.1707 17.9074C35.1854 17.3406 35.9659 16.4263 36.3366 15.3474C35.3805 15.8777 34.3268 16.2617 33.2146 16.4629C32.3171 15.5669 31.0293 15 29.6244 15C26.9122 15 24.7073 17.0663 24.7073 19.608C24.7073 19.9737 24.7463 20.3211 24.8439 20.6686C20.7463 20.4674 17.1171 18.6389 14.6976 15.8411C14.2488 16.536 13.9951 17.3406 13.9951 18.1817C13.9951 19.7909 14.8732 21.1989 16.1805 22.0217C15.3805 22.0034 14.6195 21.784 13.9561 21.4366C13.9561 21.4549 13.9561 21.4731 13.9561 21.4914C13.9561 23.7223 15.6537 25.5874 17.9171 26.0263C17.5073 26.136 17.0585 26.1909 16.6293 26.1909C16.3171 26.1909 16.0049 26.1543 15.6927 26.1177C16.3171 27.9463 18.1317 29.2811 20.2976 29.3177C18.6195 30.5611 16.4927 31.2926 14.1707 31.2926C13.7805 31.2926 13.3902 31.2743 13 31.2194C15.1854 32.536 17.761 33.2857 20.5512 33.2857C29.6049 33.2857 34.561 26.2457 34.561 20.1566C34.561 19.9554 34.561 19.7543 34.5415 19.5531C35.5171 18.9131 36.3561 18.1086 37 17.176Z" fill="white"/>
</svg>
